<svg xmlns="http://www.w3.org/2000/svg" viewBox="0 0 603.8 218.07"><defs><style>.cls-1{fill:#871d1c;}.cls-2{fill:#1c713b;}.cls-3{fill:#861d1d;}.cls-4{fill:#fff;}.cls-5{fill:#ecb71e;}.cls-6{fill:#f5d17e;}.cls-7{fill:#ebe51b;}.cls-8{fill:#176d38;}.cls-9{fill:#fdec0a;}.cls-10{fill:#fdeb07;}.cls-11{fill:#f5d909;}.cls-12{fill:#8a1a23;}.cls-13{fill:#963834;}.cls-14{fill:#912a24;}.cls-15{fill:#ad2929;}</style></defs><title>Samraa Aden Logo 3</title><g id="Layer_2" data-name="Layer 2"><g id="Layer_1-2" data-name="Layer 1"><g id="Layer_1-2-2" data-name="Layer 1-2"><path class="cls-1" d="M114.69,62.91a7.64,7.64,0,0,0-6.92-3,5.49,5.49,0,0,0-5.24,5.73,5.7,5.7,0,0,0,.43,1.9,8.84,8.84,0,0,0,2.78,3.83,22.21,22.21,0,0,0,5.65,3.34,3.29,3.29,0,0,0,1.28.19h9.84c.76,0,1,.17,1,1,0,4.64-.05,9.28,0,13.91,0,.9-.31,1-1.09,1H88.94c-1.06,0-1.43.25-1.29,1.31a9.79,9.79,0,0,1-.26,3,6,6,0,0,1-3.85,4.95c-.74.29-1.47.62-2.22.9a7.51,7.51,0,0,0-4.07,3,9.94,9.94,0,0,0-5.48-3.74l-.22-.1c-4-1.5-5-3-5.19-7.21-.07-2.12-.07-2.12-2.24-2.12H43.48c-1,0-1.37-.15-1.35-1.28.07-4.52,0-9,0-13.56,0-.81.17-1.09,1-1.09H72c.83,0,1,.27,1,1v14.4a4.5,4.5,0,0,0,.48,2.19,3.63,3.63,0,0,0,3.77,2,3.71,3.71,0,0,0,3-3.47V69.19c0-.84-.46-.74-1-.74H43.42c-1.1,0-1.3-.32-1.29-1.34V49.19c2.14.88,4.16,1.69,6.16,2.55,1,.44,2.68.55,2.93,1.47.18.67-1.1,1.8-1.81,2.66-1.18,1.43-.46,3.07-.59,4.61,0,.44.49.28.77.28h36.6c1.19,0,1.44.34,1.42,1.47-.07,3.92,0,7.84,0,11.76,0,.72.17.94.93.94h13.79a5,5,0,0,0,.71-.05,31.49,31.49,0,0,1-3.28-2.34c-5.23-4.5-6.28-12-2.38-17.12a10.56,10.56,0,0,1,7.6-4.27c1.74-.2,3.47-.53,5.2-.86,3.6-.69,4.95-2.38,4.88-6v-.47c.45,0,.51.4.65.65A8.77,8.77,0,0,1,114.3,55c-.34.35-.43.49,0,.91A5.66,5.66,0,0,1,114.69,62.91Z"/><path class="cls-1" d="M18.55,92a5.23,5.23,0,0,1-3.44-1.26c-3.48-2.71-5.68-11.37-2.32-16,3.2-4.38,9-6.74,13.89-5.39A10.78,10.78,0,0,1,32.06,73,20.56,20.56,0,0,1,29.26,102l-.2.16c-6.27,4.83-16,4.32-22.23-1.2C1.75,96.41-.33,90.7,0,84A25.46,25.46,0,0,1,6.31,68a103.69,103.69,0,0,1,7.83-7.43,44.76,44.76,0,0,0,6-6,12,12,0,0,0,2.45-5.4,3,3,0,0,0-.38-2.3c-.65-1-1.62-1-2.13.08a12.11,12.11,0,0,0-.79,2.5A4.18,4.18,0,0,1,15.44,53c-2.5.3-4.75-.24-6.19-2.49a5.09,5.09,0,0,1,0-5.67,8.56,8.56,0,0,1,8.31-3.69c3.51.68,6.15,2.56,7.1,6.14a10,10,0,0,1-1.2,7.17,20.32,20.32,0,0,1-4.16,5.38c-3,2.84-6,5.66-9,8.51C4.73,73.7,3,83.64,6.3,90.45A13.22,13.22,0,0,0,20,98c4.1-.46,8.23-4.84,9.13-9.68A10.74,10.74,0,0,0,28.75,82a5.71,5.71,0,0,0-7.25-3.58,5.65,5.65,0,0,0-2.25,1.41A7.16,7.16,0,0,0,17,87.66C17.42,89.11,18,90.5,18.55,92Z"/><path class="cls-2" d="M10.44,171.43c9.12-1.17,18.2-2.46,26.83-5.8a12,12,0,0,0,3.74-2.1c1.55-1.39,1.31-3-.59-3.88a11.31,11.31,0,0,0-4.66-1c-2.8-.05-5.6,0-8.39,0a24.37,24.37,0,0,1-4-.26,5.52,5.52,0,0,1-3.79-2,3.85,3.85,0,0,0-3.29-1.62c-1.53,0-2.14-.78-2.09-2.31a6.32,6.32,0,0,1,1.51-3.58A21.93,21.93,0,0,1,23,143c6.56-3.51,13.44-6.08,20.93-6.69a7.2,7.2,0,0,1,3.19.3,1.86,1.86,0,0,1,1.3,2.29,1.83,1.83,0,0,1-.3.61c-1.25,1.75-2.66,3.39-4,5a1.11,1.11,0,0,1-1.3.38,1.25,1.25,0,0,1-.77-1.37c.17-1.29-.54-1.55-1.57-1.39a82,82,0,0,0-17.7,4.51,8.83,8.83,0,0,0-3.32,2.09c-1.35,1.45-.94,2.9,1,3.41a14.47,14.47,0,0,0,4.4.32,88.06,88.06,0,0,1,14.25.19,19.1,19.1,0,0,1,5.61,1.4c3.71,1.69,4.54,5.61,1.84,8.68a5.36,5.36,0,0,1-1,.9c-5.62,3.73-11,7.88-17.78,9.55C20.61,174.91,13.48,177,6.12,178a13.91,13.91,0,0,1-3.35.08,1.26,1.26,0,0,1-1.22-.81A1.15,1.15,0,0,1,2.06,176c.54-.47,1.1-.93,1.68-1.35a7,7,0,0,0,2.63-2.84c.57-1.28,1.93-1.87,3-2.68.8-.59,1.66-1.11,2.52-1.62.54-.31,1.21-.78,1.73-.15s-.15,1.19-.57,1.61C12.23,169.84,11.32,170.62,10.44,171.43Z"/><path class="cls-1" d="M149.34,96.77c-1.48-3.69-.52-7.14.9-10.57.9-2.17,1.75-4.36,2.79-6.47a11.22,11.22,0,0,1,2.16-3.23c-.82-.38-1.61-.71-2.36-1.11a8.21,8.21,0,0,1-4.38-9.55,5,5,0,0,1,4.17-4.1l5-1c2.86-.57,3.89-1.79,4.14-4.91,2.13,1.59,1.62,5.93-.06,7.39-.54.47-.54.78-.18,1.36a4.84,4.84,0,0,1,.22,4.38c-.48,0-.66-.44-1-.67a4.56,4.56,0,0,0-2.72-1.1c-2.46,0-3.8,1.84-2.78,4.08,1.34,2.93,3.8,4.3,6.91,4.62a42.64,42.64,0,0,0,6.59-.12c.71,0,1,.09,1,.87q-.06,5.94,0,11.87c0,.79-.31.93-1,1-3.11.17-6.22.34-9.33.57a28.38,28.38,0,0,0-5.4,1,5.56,5.56,0,0,0-4.27,4.23C149.69,95.75,149.51,96.24,149.34,96.77Z"/><path class="cls-3" d="M188.27,39.54a2.59,2.59,0,0,1-.59.38c-2.45.81-2.83,2.56-2.81,5,.12,14.92,0,29.84.08,44.76,0,1-.16,1.41-1.28,1.33A45.66,45.66,0,0,0,179,91c-.62,0-.88-.17-.81-.81V29.74L188,39.8Z"/><path class="cls-2" d="M95,161.69a75.19,75.19,0,0,0-5,6.11,11.55,11.55,0,0,1-3.93,3.07,1.59,1.59,0,0,1-2.07-.26c-.61-.62-1.11-1.25-.7-2.22.88-2.09,1.72-4.2,2.58-6.3.16-.4.31-.8.47-1.23-.5-.06-.62.3-.8.51-1.61,1.89-3.33,3.69-4.74,5.72a12,12,0,0,1-5.55,4.33c-.74.3-1.51.8-2.22.1A2.41,2.41,0,0,1,72.5,169a21.39,21.39,0,0,1,1-2.43,91.4,91.4,0,0,0,3.91-9.38,7,7,0,0,1,2-3.23,2.24,2.24,0,0,1,2.72-.57,2.31,2.31,0,0,1,.83,3c-.83,2.12-1.72,4.21-2.55,6.32-.15.39-.48.75-.28,1.32l6.1-6.67A31.89,31.89,0,0,1,89.68,154c1.25-1,2.5-.51,2.82,1.07a3.24,3.24,0,0,1-.14,1.77c-.69,2-1.35,4.08-2,6.13a1.89,1.89,0,0,0-.09,1c1.9-2,3.81-4,5.69-6a17.4,17.4,0,0,1,3.44-3.31c1.36-.85,2.09-.53,2.54,1a8.77,8.77,0,0,1-.42,4.71c-.42,1.54-.89,3.31-1.36,5a3.48,3.48,0,0,0,.26,2.66c.55,1.09.35,1.67-.79,2a9.63,9.63,0,0,0-3.31,1.84,2.09,2.09,0,0,1-2.75-.09,1.79,1.79,0,0,1-.6-2.31,64.25,64.25,0,0,0,2.27-7.55c.18-.08.22-.3.11-.37S95.1,161.6,95,161.69Z"/><path class="cls-2" d="M279.82,164l3.22-4.52a27.11,27.11,0,0,1,4.88-5.1,2.88,2.88,0,0,1,3-.69,2.56,2.56,0,0,1,1.43,2.57,21.24,21.24,0,0,1-1,6.12c-.25,1.05-.48,2.1-.73,3.15A2.78,2.78,0,0,0,291,168a1,1,0,0,1-.11,1.41l-.08.06a9.28,9.28,0,0,1-3.55,2.17c-1.36.43-2.12,0-2.52-1.42a5.62,5.62,0,0,1,0-3.3c.69-2.17,1.38-4.33,2.06-6.5a2.81,2.81,0,0,0,.25-1.45,4.23,4.23,0,0,0-1.8,1.68,111.32,111.32,0,0,0-6.57,9c-.86,1.31-2.21,1.64-3.49,2.11-.83.31-1.85-1.39-1.57-2.55.71-2.86,1.52-5.7,2.44-8.5q.81-2.44,1.7-4.85a4.28,4.28,0,0,1,4.24-2.18c1.5.38,1.92,1.29,1.18,2.62a33.27,33.27,0,0,0-3,6.63A2.91,2.91,0,0,0,279.82,164Z"/><path class="cls-2" d="M111.41,163.9c1.11-1.36,1.85-2.87,2.88-4.19.25-.33.07-.7,0-1-.6-3.58.35-5.43,3.63-7.05a1.1,1.1,0,0,1,1.13-.09,3.54,3.54,0,0,1,1.13,3.79,13.38,13.38,0,0,0-.75,1.63,2.25,2.25,0,0,0,.37,2.24,2.23,2.23,0,0,1,.09,3c-1.19,1-3,1.17-3.88.25-.52-.54-.67-.22-1,.14A22.92,22.92,0,0,0,112,168a7.22,7.22,0,0,1-3.88,3.71c-1.52.73-4-1.1-3.82-2.78a1.13,1.13,0,0,1,.54-.88c2-1.18,2.49-3.11,2.67-5.2.06-.72.09-1.43.15-2.15.09-.92-.18-1.45-1.24-1.39a1.12,1.12,0,0,1-1.17-.68,1.31,1.31,0,0,1,.45-1.4,4,4,0,0,1,2.41-1.24,6.71,6.71,0,0,0,2.28-.65c1.23-.6,1.88-.25,2,1.12a12.9,12.9,0,0,1-.33,4.63C111.85,162.06,111.63,163,111.41,163.9Z"/><path class="cls-2" d="M157.12,138.17a2.69,2.69,0,0,1-.37,1.61,18.37,18.37,0,0,1-6,6.42,2.82,2.82,0,0,1-.42.23c-.4.21-.82.38-1.19-.05s-.11-.77.11-1.09c.46-.65,1-1.27,1.45-1.91a3.37,3.37,0,0,0,.84-3.31,1.92,1.92,0,0,1,.68-2.15c.68-.61,1.34-1.25,2-1.85,1.32-1.15,2.34-.81,2.73.91A9.47,9.47,0,0,1,157.12,138.17Z"/><path class="cls-3" d="M201.06,59.14l-.12.17-.08-.08.2-.08Z"/><path class="cls-2" d="M232.4,168.14a17.18,17.18,0,0,1-1.36-5.55c-.06-.63,0-1.09.68-1.44a1,1,0,0,0,.52-.52.92.92,0,0,0-.52-1.19c-.85-.38-.91-1-.91-1.71a71,71,0,0,1,1.26-16.46,7.29,7.29,0,0,0,.4-3.17c-.33-1.33-1-1.55-2-.63-.52.54-1,1-1.52,1.54-5.53,5.91-10.86,12-16.18,18.23a2.22,2.22,0,0,1-2.45.95c-2.47-.75-4.29.43-6,2-.38.32-.8.72-.65,1.32a1.46,1.46,0,0,0,1.21,1,9,9,0,0,0,2,.17,5.77,5.77,0,0,1,2.19.09c-.93,1.24-1.79,2.42-2.68,3.58q-4.72,6.18-9.5,12.35c-.46.59-.71,1.14-.24,1.81l1.19.1c2.81-.84,4.17-3.25,5.76-5.39,2.76-3.72,5.54-7.44,8.25-11.2a2.44,2.44,0,0,1,2.54-1.28,12,12,0,0,0,3-.08c2.3-.3,4.59-.65,6.88-1,.85-.17,1.27,0,1.36,1a20.52,20.52,0,0,0,1.18,5.24,2.9,2.9,0,0,0,2.9,2,2.55,2.55,0,0,1,1.06.14,1.35,1.35,0,0,0,1.63-.35C232.89,169.14,232.64,168.65,232.4,168.14Zm-6.73-17.37a35.83,35.83,0,0,0-.48,7.17,1.57,1.57,0,0,1-.11.69c-.13.26-.4.34-.9.34l-2.27-.16-6.36-.3v0c3.78-4.67,7.4-9.11,11.43-13.72C226.5,147,226,148.86,225.67,150.77Z"/><path class="cls-3" d="M297.55,52,288,61.88c.93.64,1.76,1.14,2.62,1.64a1.11,1.11,0,0,1,.63,1.15v9.48c0,.69-.21.85-.88.85-2.16,0-4.32-.07-6.47,0-.91,0-1.11-.22-1.11-1.11V56.37c0-.32.16-.69-.14-1l-9.9,10c.85.51,1.71,1.09,2.62,1.57a1.18,1.18,0,0,1,.72,1.21v6c0,.71-.23.85-.88.85-2.28,0-4.56-.06-6.84,0-.9,0-1.2-.15-1.2-1.15V60.3A1.71,1.71,0,0,0,267,59l-9.66,10.21a2.51,2.51,0,0,0,.66.41c2.1.75,2.72,2.23,2.42,4.35-.1.76-.21,1-1,1H243.66a1,1,0,0,1-1.14-.73,11,11,0,0,0-10.87-7.47A11.12,11.12,0,0,0,221,74.22c-.21.52-.4.76-1,.76h-6.84c-.43,0-.73,0-.87-.57-1.21-4.51-4-8-7.21-11.26-1.35-1.37-2.68-2.68-4-4l0,.12c-.28.4,0,.76.09,1.13a11.33,11.33,0,0,1,0,6.27A10.78,10.78,0,0,1,197.65,72c4.48.66,6.31,3.61,7.31,7.38a42.94,42.94,0,0,1,1.15,13.08,13.49,13.49,0,0,1-7.29,11.76,22.38,22.38,0,0,1-6.64,2.3,57.69,57.69,0,0,1-6.16.66,13.46,13.46,0,0,0,3.81,1.55c4.56,1.32,9.18,1.61,13.56-.56,6.65-3.26,9.8-8.81,10-16.09,0-.86.17-1.14,1.11-1.14,1.71.09,3.44.08,5.16,0,.84-.07,1.14.25,1.41,1a11.12,11.12,0,0,0,10.63,7.31c5.42.05,9-2.26,10.74-7.1a1.56,1.56,0,0,1,1.78-1.24h52.31c1,0,1.26-.23,1.26-1.23V53.08C297.79,52.73,298,52.29,297.55,52Zm-60.8,27.48c0,.11,0,.2-.05.31s0,.32-.08.47-.09.29-.14.44a3.83,3.83,0,0,1-.17.43,3.72,3.72,0,0,1-.21.39c-.08.13-.15.26-.24.38s-.19.24-.29.35-.2.22-.31.32l-.34.29c-.12.09-.24.18-.37.26s-.26.14-.39.21a3.75,3.75,0,0,1-.41.19l-.44.14-.44.1a3.91,3.91,0,0,1-.48,0c-.11,0-.21,0-.32,0h-.31c-3,0-4.91-2.15-4.89-5.31,0-.13,0-.25,0-.37s0-.2,0-.3,0-.33.06-.49a3.74,3.74,0,0,1,.12-.45,3.26,3.26,0,0,1,.15-.44,2.68,2.68,0,0,1,.19-.42l.23-.4c.09-.13.18-.25.28-.37s.19-.24.29-.35l.34-.31c.12-.1.23-.19.36-.28a4.11,4.11,0,0,1,.39-.24,4,4,0,0,1,.41-.21,4.13,4.13,0,0,1,.45-.17,3.17,3.17,0,0,1,.44-.12,3.85,3.85,0,0,1,.49-.08l.29-.05h.37a4.67,4.67,0,0,1,3.6,1.61,6.14,6.14,0,0,1,1.4,4.09C236.76,79.26,236.76,79.36,236.75,79.47Z"/><path class="cls-4" d="M95,161.69c.09-.09.11-.34.28-.23s.07.29-.11.37Z"/><path class="cls-2" d="M247.73,141.49a6.38,6.38,0,0,0-7.3-.29c-.53.31-1.32.46-1.31,1.25s.86.88,1.43,1.05a9.08,9.08,0,0,1,4.78,3.23,25.57,25.57,0,0,1,3.28,6.09c.25.61,0,.75-.49.94a35.82,35.82,0,0,0-4.52,2.44,13.86,13.86,0,0,0-6.76,10.61c-.44,3.25,2,5.58,5.15,4.88a8.58,8.58,0,0,0,1.93-.64c6.88-3.37,10.16-9,10.4-15.55C254.3,148.83,252,144.24,247.73,141.49Zm1.49,20.13a10.54,10.54,0,0,1-2.63,5,3.58,3.58,0,0,1-2.4,1.21,1.73,1.73,0,0,1-.9-.17h0a1.06,1.06,0,0,1-.29-.22,1.14,1.14,0,0,1-.15-.23l-.07-.18a2.62,2.62,0,0,1-.06-.43s0-.07,0-.12a4.17,4.17,0,0,1,.06-1v0h0c.09-.31.19-.61.29-.91s.1-.33.16-.49.13-.3.19-.45a21.22,21.22,0,0,1,5.93-7.8h0A17.35,17.35,0,0,1,249.22,161.62Z"/><path class="cls-2" d="M142.23,155.83a1.78,1.78,0,0,0-.95-2.28,5.92,5.92,0,0,0-4.85-.73,25,25,0,0,0-15.83,13.63,4,4,0,0,0-.25,2.58c.34,1.57,1.39,2.4,2.81,2.1,3.92-.84,7.63-2.1,10.33-5.32a.6.6,0,0,1,.54-.3c-.08.5-.08.93-.16,1.39a10.81,10.81,0,0,0,.36,4c.2.65.62,1.26,1.35,1.11a6,6,0,0,1,2.11.17,1.48,1.48,0,0,0,1.72-2,4.27,4.27,0,0,1,0-2.35C140.17,163.78,141.13,159.83,142.23,155.83Zm-4.65.73-.08.15a27.06,27.06,0,0,1-8.07,9.76,7.39,7.39,0,0,1-1.48.76c-.67.28-1,0-.92-.72v0a5.55,5.55,0,0,1,.87-2.32A27.12,27.12,0,0,1,136,156a2.16,2.16,0,0,1,.51-.29c.4-.15.85-.51,1.21-.1S137.79,156.26,137.58,156.56Z"/><path class="cls-2" d="M177.35,156a2,2,0,0,0-1.1-2.56,6.42,6.42,0,0,0-4.76-.6,24.92,24.92,0,0,0-11.75,7.5,18.07,18.07,0,0,0-4.18,6.78c-.71,2.14.72,4.36,2.59,4,3.8-.75,7.43-1.94,10.14-4.94a1.29,1.29,0,0,1,.83-.61,17.47,17.47,0,0,0,.18,5c.2.77.52,1.58,1.45,1.48a6.43,6.43,0,0,1,2.1.17,1.53,1.53,0,0,0,1.05-.11,1.5,1.5,0,0,0,.67-2,3.4,3.4,0,0,1-.11-1.76Q175.63,162.12,177.35,156Zm-4.62.52a26.32,26.32,0,0,1-8.53,10.16,5.33,5.33,0,0,1-1.08.51c-.71.27-1,0-1-.62l0,0a5.64,5.64,0,0,1,.73-2.11,27,27,0,0,1,8.38-8.58,1.4,1.4,0,0,1,.53-.27c.33-.09.69-.41,1-.09a.51.51,0,0,1,.14.51A2,2,0,0,1,172.73,156.54Z"/><path class="cls-2" d="M71.5,155.82a1.74,1.74,0,0,0-.87-2.22,6.25,6.25,0,0,0-5.07-.75A25,25,0,0,0,53.27,161a17.81,17.81,0,0,0-3.55,5.89c-.76,2.2.61,4.56,2.5,4.2A19.37,19.37,0,0,0,60.31,168a20,20,0,0,0,2.86-2.65c0,.72,0,1.26,0,1.78a11.76,11.76,0,0,0,.32,3.69c.22.67.62,1.34,1.42,1.19a5.19,5.19,0,0,1,2,.15,1.52,1.52,0,0,0,1,0,1.49,1.49,0,0,0,.8-2,3.59,3.59,0,0,1-.1-2Q69.8,161.92,71.5,155.82Zm-4.79,1a.56.56,0,0,0,0,.08s0,.08-.07.13a28,28,0,0,1-7.47,9.07,6.57,6.57,0,0,1-1.86,1.05c-.77.27-1,0-1-.79h0a7.26,7.26,0,0,1,.9-2.24,27.13,27.13,0,0,1,8.16-8.26c.47-.36,1.14-.79,1.6-.36a.53.53,0,0,1,.16.55A2.38,2.38,0,0,1,66.71,156.86Z"/><path class="cls-2" d="M271.29,168.12a.85.85,0,0,0-1.18-.14,17.15,17.15,0,0,1-1.8,1,4.19,4.19,0,0,1-4.51-.47c-.67-.54-1-.91.15-1.45,4.66-2.24,6.4-6.39,7.07-11.19,0-2.27-1.13-3.71-2.9-3.64a5.89,5.89,0,0,0-2.47.83,18.89,18.89,0,0,0-9.12,10.35,9.53,9.53,0,0,0-.57,4.58c.31,2.44,1.47,3.54,3.87,3.67a8.6,8.6,0,0,1,1.43.18,10.27,10.27,0,0,0,8.7-1.29,4.71,4.71,0,0,0,1.33-1.18A.91.91,0,0,0,271.29,168.12ZM265.41,157a3.26,3.26,0,0,1,1.11-.68c.74-.29,1.19,0,1.19.81a4,4,0,0,1-.06,1.19,12.27,12.27,0,0,1-5.25,7C262.57,162.1,263.28,159.32,265.41,157Z"/><path class="cls-5" d="M337.72,106c.25-1.72.46-3.46.77-5.18A47.81,47.81,0,0,1,349.44,78a54.54,54.54,0,0,1,15-12.3,1.34,1.34,0,0,0,.77-1.38V40.49c0-.93.15-1.25,1.2-1.25,5.06.07,10.13,0,15.2.06.95,0,1.11-.29,1.1-1.15,0-4.6,0-9.22,0-13.81,0-.94.28-1.11,1.15-1.11h38.12a1.41,1.41,0,0,0,1.33-.56A55.78,55.78,0,0,1,453.63,2.41c16.45-4.47,32.29-2.76,47.31,5.44a52.9,52.9,0,0,1,16.94,14.58,1.86,1.86,0,0,0,1.7.81H558c.86,0,1.15.17,1.14,1.1,0,4.67,0,9.35,0,14,0,.82.24,1,1,1h15c.89,0,1.06.26,1.06,1.09,0,7.9,0,15.8,0,23.7a1.79,1.79,0,0,0,1.06,1.8c10.13,5.87,17.88,14,22.59,24.76a44.47,44.47,0,0,1,3.64,14.57c.09.72-.36,1.54.37,2.15v3.51c-.73.61-.28,1.43-.38,2.16a45.68,45.68,0,0,1-5.76,18.84,52.92,52.92,0,0,1-20.25,20.32,2.14,2.14,0,0,0-1.28,2.18c.06,7,0,14,.06,21.06,0,.87-.24,1.07-1.09,1.06-5,0-10,0-15,0-.81,0-1,.24-1,1v15.12c0,.81-.21,1-1,1-12.19,0-24.44,0-36.66-.06a3.22,3.22,0,0,0-3,1.48A56.21,56.21,0,0,1,492,214.38,60.51,60.51,0,0,1,469.13,218c-16.11-.53-30.15-6.1-41.64-17.59a42.27,42.27,0,0,1-5.1-6.15,1.7,1.7,0,0,0-1.63-.81H383.81c-1,0-1.24-.26-1.22-1.24.05-4.87,0-9.81.05-14.72,0-1-.29-1.16-1.21-1.15-5,0-10.07,0-15.1,0-1,0-1.21-.3-1.21-1.24V153.92a1.6,1.6,0,0,0-.91-1.62,53.08,53.08,0,0,1-21.94-23.09,45.94,45.94,0,0,1-4.35-16c0-.21.06-.46-.18-.62Zm71.8-73.78h-17c-.81,0-1,.21-1,1V47.3c0,.77-.2,1-1,1H375c-.76,0-1,.18-1,1,0,6.37,0,12.74.07,19.11a3.19,3.19,0,0,1-2,3.4,47.25,47.25,0,0,0-16.61,13c-7.11,8.94-10.1,19.12-8.3,30.45,1.54,9.75,6.5,17.63,13.81,24.08a61.58,61.58,0,0,0,12.19,7.86,1.51,1.51,0,0,1,.91,1.62v17.88c0,.87.25,1.09,1.1,1.08h15.11c1.51,0,1.32-.17,1.32,1.28v14.63c0,.89.23,1.13,1.12,1.13,10.5,0,21,0,31.5-.08a3.74,3.74,0,0,1,3.71,2A45.38,45.38,0,0,0,446,203.31a53.11,53.11,0,0,0,35.38,4.88,49.31,49.31,0,0,0,24.91-12.69,52.92,52.92,0,0,0,7.94-9.95,1.73,1.73,0,0,1,1.63-.89q16.57,0,33.15.05c1,0,1.21-.31,1.2-1.25,0-4.93,0-9.87,0-14.81,0-.77.2-1,1-1h15c.92,0,1.13-.27,1.13-1.16V148.56a1.24,1.24,0,0,1,.81-1.36c.81-.38,1.62-.87,2.4-1.29a47.71,47.71,0,0,0,15-12c7-8.58,10.21-18.4,8.88-29.45-1.29-10.56-6.51-19.1-14.55-26A63.09,63.09,0,0,0,568.05,71a1.4,1.4,0,0,1-.81-1.43V49.26c0-.81-.17-1.09-1-1.09-4.88,0-9.82,0-14.73,0-1.54,0-1.32.21-1.32-1.36V33.45c0-1.5.18-1.32-1.37-1.32-10.56,0-21.06-.09-31.59.07A5.55,5.55,0,0,1,512,29.51C502.56,16.35,489.36,10.09,473.48,9A49.66,49.66,0,0,0,428,31.27a1.85,1.85,0,0,1-1.77.87C420.61,32.17,415.08,32.18,409.52,32.18Z"/><path class="cls-6" d="M603.76,107.33c-.73-.61-.28-1.43-.37-2.16h.37Z"/><path class="cls-6" d="M603.38,113c.1-.73-.35-1.55.38-2.16V113Z"/><path class="cls-7" d="M443,83v7.32c0,.65-.13.91-.81.9-1.85,0-1.85,0-2.5-1.73-.81-2.07-1.66-4.07-2.28-6.2a7.58,7.58,0,0,0-4.15-4.63,25.21,25.21,0,0,0-9.22-2.61,14.75,14.75,0,0,0-8.61,1.48,10,10,0,0,0-5.58,8.67c-.28,4.8.81,9.1,4.88,12.18a20.6,20.6,0,0,0,6.67,3.09c4.12,1.27,8.34,2.21,12.34,3.87a27.53,27.53,0,0,1,6.88,3.8,15.82,15.82,0,0,1,6,13.34c-.21,10.48-6.5,17.8-16.73,20.52-6.07,1.62-12.19,1.19-18.21-.26-3.4-.81-6.75-1.86-10.09-2.89a1,1,0,0,1-.81-1.09q-.51-8.18-1.08-16.35c0-.56.11-.7.66-.71,1.95,0,1.95-.07,2.68,1.78,1,2.53,2,5.06,3,7.6a6.73,6.73,0,0,0,2.9,3.43,32.48,32.48,0,0,0,13.94,4.87c5.21.46,9.94-.81,13.11-5.39s2.94-11.91-.3-15.74a18.87,18.87,0,0,0-9.17-5.69c-3.4-1.06-6.87-1.93-10.28-2.95a23.7,23.7,0,0,1-7.31-3.54c-5.39-4-7.47-9.41-6.91-15.93.87-10.16,9-17.54,18.87-18.57,6.5-.69,12.8.49,19,2.24,1,.29,2.36.37,3,1.06s.16,2.05.18,3.12C443.06,79.7,443,81.35,443,83Z"/><path class="cls-7" d="M525.87,142.46H514.56c-.75,0-1-.17-1-1,.07-1.39,0-1.4,1.42-1.67q3.15-.62,6.31-1.19c.86-.13,1-.37.69-1.21-2.44-6.25-4.87-12.53-7.25-18.79-.76-2-.76-2-2.88-2H490.51a1.12,1.12,0,0,0-1.3.91q-3.52,9.89-7.16,19.74c-.25.7-.23,1,.6,1.16,2.3.44,4.58,1,6.86,1.46.28.07.74,0,.75.45a4.51,4.51,0,0,1-.11,2c0,.1-.43.09-.64.09h-18c-.59,0-.81-.16-.81-.77,0-1.58,0-1.58,1.55-2.05.62-.18,1.24-.41,1.87-.54a5.35,5.35,0,0,0,4.06-3.75c2.37-6.25,4.78-12.48,7.16-18.7,4.12-10.77,8.2-21.57,12.39-32.32C499,81,501,77.92,502.61,74.71a14.83,14.83,0,0,0,.93-1.82c.31-.86.87-1,1.72-1a1.05,1.05,0,0,1,1.11.81q3.11,8.13,6.26,16.25,8.94,23.24,18,46.45a5.38,5.38,0,0,0,4.11,3.74c.85.18,1.66.55,2.52.72s.92.48.9,1.18c-.05,1.43,0,1.43-1.47,1.43ZM491.12,112.8h20.22c1.07,0,1.07,0,.67-1q-4.87-12.67-9.75-25.39c-.19-.48-.37-1-.65-1.71C498.05,94.19,494.61,103.44,491.12,112.8Z"/><path class="cls-8" d="M475.5,42.46a21.33,21.33,0,0,1,4.35-9.86,19.18,19.18,0,0,1,12-6.75,37.76,37.76,0,0,1,13.24.36c.76.13.4.49.26.81A37.14,37.14,0,0,1,499,36.83a23.88,23.88,0,0,1-9.8,6.65,20.93,20.93,0,0,1-11.89.43l-1-.23C476.14,43.15,476.33,42.49,475.5,42.46Z"/><path class="cls-8" d="M478.49,69.88c1.44-7.14,5.34-12.34,12.24-14.95,4.25-1.63,8.69-1.71,13.15-1.28,1.33.13,2.63.36,3.95.55.48.06.68.22.43.76-2.78,5.9-6.5,11-12.12,14.53a20.29,20.29,0,0,1-15.9,2.44l-.66-.14c.38-.16.75-.32,1.14-.46.88-.3.5-1,.45-1.56s-.56-.19-.87-.16C479.7,69.68,479.12,69.78,478.49,69.88Z"/><path class="cls-8" d="M468.86,74.91a19.46,19.46,0,0,1-22.76-1,38.68,38.68,0,0,1-8.42-9c-.29-.41-.36-.66.19-.86,7-2.54,14.15-3.61,21.41-1.06a20.44,20.44,0,0,1,11.1,9.76,1.17,1.17,0,0,1,.22.73L467.68,73c-1.12-.21-1.12-.2-1,.93,0,.43.2.63.63.68S468.32,74.8,468.86,74.91Z"/><path class="cls-7" d="M468.86,74.91c-.54-.11-1.06-.26-1.63-.34s-.58-.25-.62-.68c-.1-1.13-.1-1.15,1-.94l2.92.57c1.74.24,1.7.25,1.45-1.53a78.39,78.39,0,0,1-.93-8.64,1.78,1.78,0,0,1,.18-.55c1.19-1.62.59-3.08-.54-4.45,0-.59-.07-1.18-.11-1.77.9-1.12,1.47-2.27.73-3.73-.2-.41-.65-.67-.65-1.17a12.56,12.56,0,0,1,.22-3.06,11.17,11.17,0,0,0,2.44,1.11,3.05,3.05,0,0,0-1.4,3.14,4.72,4.72,0,0,0,1.17,2.06v.87a1.46,1.46,0,0,1-.16.44c-1.51,2.08-1.42,3.25.4,5,.31,2.89.63,5.78,1.22,8.63.14.68.34.81,1,.63.95-.27,1.94-.43,2.92-.63.6-.1,1.2-.2,1.8-.28.31,0,.81-.36.87.15s.43,1.26-.45,1.57c-.39.14-.76.3-1.14.45L475.8,73a.81.81,0,0,0-.55.61c-.67,2.93-1.36,5.85-2,8.78a1.73,1.73,0,0,0,.08.35h0c-.19-.07-.13.09-.15.18-1.67,1.25-1.94,2.06-1.29,4,.18.58.14.88-.56,1.06a2.73,2.73,0,0,0-2.12,2.85,3.15,3.15,0,0,0,1.39,2.69q-3.31,14.09-6.64,28.19a1.17,1.17,0,0,1-1,1.06c-.81.14-1.56.39-2.35.59-1.07.27-1.08.26-.82-.76q1.23-4.8,2.44-9.6,2.63-10.11,5.24-20.23c0-.19.13-.37.18-.54a3.79,3.79,0,0,0,1-4c.28-1.12.56-2.23.81-3.35A3.2,3.2,0,0,0,470.67,80c.34-1.34.66-2.68,1-4,.13-.47,0-.62-.44-.68Z"/><path class="cls-9" d="M430.19,167.14c1.94-2.09,5.07-1.93,6.32.05a4.46,4.46,0,0,1,3.48-1.56,3.54,3.54,0,0,1,3.65,3.44v.08c.05,2.21,0,4.42,0,6.63,0,.53-.2.66-.68.64h-2.64c-.58,0-.69-.22-.69-.74V170.8c0-1.43-.43-2-1.32-2s-1.31.65-1.31,2v4.88c0,.55-.15.74-.71.72h-2.63c-.57,0-.72-.2-.71-.74v-5.74a1.13,1.13,0,0,0-1.13-1.12,1.2,1.2,0,0,0-1.31.93,3.79,3.79,0,0,0-.12,1.16v4.77c0,.51-.09.81-.69.74-.91,0-1.82,0-2.73,0-.52,0-.65-.21-.65-.69v-9.07c0-.56.2-.74.73-.71.69,0,1.37,0,2.05,0S430.54,165.92,430.19,167.14Z"/><path class="cls-10" d="M401.66,171.53a9.55,9.55,0,0,0,1.07,0,1,1,0,0,1,1.28.68l0,.13c.34,1.09,2.56,1.52,3.48.78a1,1,0,0,0,.12-1.37,1.27,1.27,0,0,0-.25-.21,6.71,6.71,0,0,0-2.07-.81c-1-.34-2-.61-3-1a3.53,3.53,0,0,1-2.35-3.18,3.75,3.75,0,0,1,2-3.91,8,8,0,0,1,7.57-.15,4,4,0,0,1,2.18,3.15c.1.56-.09.76-.66.73h-2.14c-.72,0-1.33.12-1.63-.87-.23-.81-2.07-.94-2.68-.35a.8.8,0,0,0-.17,1.13.82.82,0,0,0,.41.3c.65.27,1.36.41,2,.62.93.29,1.87.56,2.77.9a3.84,3.84,0,0,1,2.67,3.49,4,4,0,0,1-2.25,4.2,8.7,8.7,0,0,1-8,.14,4.59,4.59,0,0,1-2.63-3.52c-.1-.57-.05-1,.7-.87C400.65,171.55,401.15,171.55,401.66,171.53Z"/><path class="cls-9" d="M504.72,176.41a3.86,3.86,0,0,0-.68,0c-1.17.23-1.86-.21-2-1.39-.08-.55-.41-.64-.89-.63a27.06,27.06,0,0,1-3.12,0c-.73,0-1.09.21-1.18.91-.13.95-.7,1.22-1.63,1.13a14.2,14.2,0,0,0-2.44,0c-.68,0-.81-.13-.56-.81,1.28-3.4,2.52-6.8,3.77-10.2.36-1,.74-1.94,1.08-2.92.14-.44.36-.66.81-.57h.1c1.2,0,2.63-.38,3.53.15s1,2.09,1.38,3.2c1.27,3.37,2.44,6.75,3.75,10.11.3.81.28,1.14-.68,1A8.29,8.29,0,0,0,504.72,176.41ZM498,171.29h2.35c.48,0,.55-.2.43-.59-.39-1.36-.81-2.73-1.25-4.33Z"/><path class="cls-9" d="M514.5,175.38c-2.87,2.6-6.92,1-7.49-2.79a10.76,10.76,0,0,1-.07-2.72c.36-3.43,3.94-5.78,7.31-3.05v-4.13c0-.54.07-.81.72-.81,1.09.1,2.51-.45,3.18.23s.17,2,.17,3v10.34c0,.7-.12,1-.89.93s-1.37,0-2,0S514.1,176.57,514.5,175.38Zm-3.59-4a5.63,5.63,0,0,0,.11.81,1.57,1.57,0,0,0,1.63,1.28,1.52,1.52,0,0,0,1.62-1.25,3.73,3.73,0,0,0-.09-2.57,1.47,1.47,0,0,0-1.53-1c-1.19.08-1.76.88-1.74,2.72Z"/><path class="cls-9" d="M536.82,167.25a4.49,4.49,0,0,1,4.69-1.41,3,3,0,0,1,2.34,2.43c.43,2.55.11,5.13.19,7.69,0,.36-.19.43-.49.42h-3c-.52,0-.55-.27-.55-.67v-5.17c0-1.19-.45-1.75-1.35-1.76a1.57,1.57,0,0,0-1.59,1.55c0,.06,0,.12,0,.19,0,1.69,0,3.38,0,5.07,0,.64-.18.81-.81.81-.81-.05-1.69,0-2.54,0-.48,0-.69-.11-.69-.64v-9.17c0-.53.21-.67.69-.65a19.28,19.28,0,0,0,2.15,0C536.63,165.88,537.09,166,536.82,167.25Z"/><path class="cls-9" d="M465.31,171.54a15.5,15.5,0,0,0,.26,4.35c.12.4,0,.53-.38.53h-3.3c-.52-1-1.05-.18-1.54,0a5.67,5.67,0,0,1-3.81.13,3,3,0,0,1-2.2-3,2.83,2.83,0,0,1,2.13-2.91,23.58,23.58,0,0,1,3.62-.69,3.61,3.61,0,0,0,1-.29.81.81,0,0,0,.39-1.08,1.1,1.1,0,0,0-.14-.21,1.93,1.93,0,0,0-2.65.29.73.73,0,0,1-.82.5c-.81,0-1.56,0-2.33,0s-.75-.33-.64-.82a2.55,2.55,0,0,1,1.63-2,10,10,0,0,1,6.67-.21A2.75,2.75,0,0,1,465.3,169C465.31,169.78,465.31,170.66,465.31,171.54Zm-3.8.06c-.81.22-1.54.44-2.28.65a1,1,0,0,0-.87,1.14,1.42,1.42,0,0,0,.05.22,1.16,1.16,0,0,0,1.31,1l.16,0c1.36-.2,1.78-1,1.65-2.93Z"/><path class="cls-9" d="M424.76,176.41h-3.84c-.56-1-1.11-.14-1.63,0a5.68,5.68,0,0,1-3.53.15,3,3,0,0,1-2.37-2.94,2.79,2.79,0,0,1,2.2-3,24.7,24.7,0,0,1,3.53-.67,3.37,3.37,0,0,0,1-.28.82.82,0,0,0,.39-1.08.69.69,0,0,0-.16-.22,1.92,1.92,0,0,0-2.64.31c-.22.48-.52.49-.91.49a14,14,0,0,0-2.05,0c-.94.11-.94-.38-.77-1a2.44,2.44,0,0,1,1.5-1.79,9.74,9.74,0,0,1,6.95-.17,2.65,2.65,0,0,1,1.88,2.66v4.06A9.28,9.28,0,0,0,424.76,176.41Zm-4.2-4.82c-.81.23-1.55.45-2.3.65a1,1,0,0,0-.91,1.14.59.59,0,0,0,0,.23,1.19,1.19,0,0,0,1.37,1l.11,0c1.34-.22,1.81-1.05,1.68-3Z"/><path class="cls-9" d="M484.81,176.41H481c-.68-1-1.28-.06-1.88.11a6.08,6.08,0,0,1-3.25.08,2.94,2.94,0,0,1-2.44-3,2.81,2.81,0,0,1,2.3-3.06,31,31,0,0,1,3.44-.62,3.13,3.13,0,0,0,1-.3.76.76,0,0,0,.42-1,.68.68,0,0,0-.22-.31,2,2,0,0,0-2.65.34.7.7,0,0,1-.73.47h-2.54c-.51,0-.58-.19-.51-.64a2.52,2.52,0,0,1,1.58-2.17,9.71,9.71,0,0,1,6.86-.2,2.73,2.73,0,0,1,2,2.82v3.8A9.8,9.8,0,0,0,484.81,176.41Zm-4.21-4.81-2.31.65a1,1,0,0,0-.87,1.17,1.66,1.66,0,0,0,.06.21,1.17,1.17,0,0,0,1.38.93l.11,0c1.3-.22,1.78-1.07,1.64-2.94Z"/><path class="cls-10" d="M527.62,171.91h-3.25c-.74,0-.82.26-.64.87a2.1,2.1,0,0,0,3.32,1.14,2.44,2.44,0,0,1,2-.66h1c.31,0,.92-.2,1.08.12s-.21.82-.47,1.2c-1.42,1.92-3.47,2.32-5.64,2.09-3.26-.35-5.17-2.58-5-5.59a5.48,5.48,0,0,1,5.3-5.44c3.35-.19,5.62,1.56,6.15,4.76a1.59,1.59,0,0,0,.07.38c.26.89,0,1.24-1,1.16S528.59,171.91,527.62,171.91Zm-1.91-1.83h1.36c.69,0,.82-.27.58-.82a2.05,2.05,0,0,0-2.68-1.1,2.08,2.08,0,0,0-1,.85c-.44.82-.31,1.05.65,1.06.35,0,.71,0,1.07,0Z"/><path class="cls-9" d="M453.8,169.29c-.51-.09-.85-.17-1.2-.21a2.26,2.26,0,0,0-2.69,1.72,2.2,2.2,0,0,0-.05.57c-.06,1.43-.05,2.86,0,4.29,0,.6-.19.81-.77.76h-2.74c-.41,0-.56-.13-.56-.55v-9.35c0-.51.24-.59.65-.57h1.86c1.35,0,1.35,0,1.46,1.41a3.37,3.37,0,0,1,3.25-1.7c.55.05.9.18.81.87C453.75,167.43,453.8,168.33,453.8,169.29Z"/><path class="cls-11" d="M473.12,54.93a4.74,4.74,0,0,1-1.18-2.06,3.06,3.06,0,0,1,1.41-3.14,10.76,10.76,0,0,1-2.44-1.11,4.61,4.61,0,0,1-.6-2.44,2.74,2.74,0,0,1,1-1.91,1,1,0,0,0,.36-1.4l-.09-.12a3.6,3.6,0,0,1-2.27.81,3,3,0,0,1-2.87-3.15v-.1c0-.31.22-.6-.28-.75a2.87,2.87,0,0,1-2.28-2.91,3.08,3.08,0,0,1,2.26-3,.1.1,0,0,1,.05-.08.59.59,0,0,0,.56-.64v0a6.52,6.52,0,0,1,.42-1.63,3.39,3.39,0,0,1,3.16-1.11c1.88.48,2.63,2,2.1,4.35a3.24,3.24,0,0,1,2.9,1.27,3,3,0,0,1-.71,4.2,2.88,2.88,0,0,1-1,.46c-.28.08-.9-.12-.73.48s0,1.17.82,1.26l1.73.26c.81,0,.64.69.72,1.19-.2.11-.4.22-.6.31s-.4.2-.16.54c1.28,1.89,1.14,3-.52,4.67.17.19.41.15.63.21a3,3,0,0,1-.91,5.93,3.34,3.34,0,0,1-.8-.24C473.62,55,473.43,54.82,473.12,54.93Zm2.75-8.36a2.55,2.55,0,0,0-5.1,0h0a2.55,2.55,0,1,0,5.1,0ZM467,34.11a2.58,2.58,0,0,0-2.63,2.52v0A2.59,2.59,0,1,0,467,34.11Zm7.95,15.64a2.56,2.56,0,0,0-2.61,2.49v.07a2.58,2.58,0,0,0,2.53,2.54,2.54,2.54,0,0,0,2.59-2.48v-.09A2.48,2.48,0,0,0,475,49.75ZM473,40.09a2.52,2.52,0,0,0,2.51-2.53v0A2.55,2.55,0,0,0,473,35h-.06a2.7,2.7,0,0,0-2.54,2.57,2.54,2.54,0,0,0,2.54,2.54Zm-.7-6.65a2.7,2.7,0,0,0-2.44-2.92,2.61,2.61,0,0,0-2.62,2.37c0,.47,0,.81.59.91A2.23,2.23,0,0,1,469.46,35c.44.91,1,.7,1.62.33A2.43,2.43,0,0,0,472.3,33.44Zm-2.83,9.71A2.59,2.59,0,0,0,472,41.07a.6.6,0,0,0-.39-.81,2.78,2.78,0,0,1-1.46-1.72c-.18-.56-.42-.61-.77-.13a2.59,2.59,0,0,1-1.63,1.12c-.76.11-.81.62-.81,1.18A2.58,2.58,0,0,0,469.47,43.15Z"/><path class="cls-12" d="M594.33,104.52c-1.29-10.63-6.5-19.13-14.55-26a63.34,63.34,0,0,0-11.73-7.47,1.39,1.39,0,0,1-.82-1.43V49.3c0-.83-.17-1.09-1.05-1.09H551.45c-1.54,0-1.31.21-1.31-1.36V33.49c0-1.5.17-1.32-1.38-1.32-10.53,0-21-.09-31.58.07a5.56,5.56,0,0,1-5.2-2.69c-9.43-13.18-22.63-19.42-38.51-20.5A51.39,51.39,0,0,0,428,31.31a1.85,1.85,0,0,1-1.77.87H409.52c-5.66,0-11.31,0-17-.18-.77,0-1,.21-1,1V47.13c0,.76-.2,1-1,1H375c-.75,0-1,.15-1,1,.07,6.37-.06,12.74.07,19.11a3.19,3.19,0,0,1-2,3.4,48.37,48.37,0,0,0-16.61,13c-7.1,9-10.09,19.08-8.29,30.45,1.52,9.74,6.45,17.63,13.81,24.08A61.58,61.58,0,0,0,373.16,147a1.52,1.52,0,0,1,.91,1.63v17.87c0,.87.29,1.08,1.1,1.08h15.11c1.51,0,1.32-.17,1.32,1.28,0,4.88,0,9.75,0,14.63,0,.89.23,1.13,1.12,1.13,10.5,0,21,0,31.5-.08a3.74,3.74,0,0,1,3.7,2,45.43,45.43,0,0,0,18,16.78,53.13,53.13,0,0,0,35.37,4.88,49.34,49.34,0,0,0,24.92-12.69,53.19,53.19,0,0,0,7.93-9.95,1.72,1.72,0,0,1,1.63-.89c11.05.05,22.1,0,33.16.05,1,0,1.2-.31,1.2-1.25,0-4.93,0-9.87,0-14.82,0-.76.16-1,1-1,5,0,10-.05,15,0,.92,0,1.13-.26,1.13-1.15V148.53a1.24,1.24,0,0,1,.81-1.36c.82-.38,1.59-.87,2.4-1.29a47.55,47.55,0,0,0,15-11.91C592.48,125.39,595.66,115.57,594.33,104.52ZM437.85,64.09c7-2.54,14.15-3.61,21.41-1.06a20.54,20.54,0,0,1,11.1,9.75,1.14,1.14,0,0,1,.23.73c1.74.25,1.7.25,1.44-1.53a78.39,78.39,0,0,1-.93-8.64c-.34-.22-.53.1-.76.22a3,3,0,0,1-3.7-.71,3,3,0,0,1-.16-3.68,3,3,0,0,1,3.53-1c.24.08.45.29.73.21l-.11-1.76a3.7,3.7,0,0,1-2.77.48,3,3,0,1,1,2-5.69c.28.12.51.44.88.27a11.67,11.67,0,0,1,.22-3.06,4.59,4.59,0,0,1-.6-2.43,2.73,2.73,0,0,1,1-1.86.57.57,0,0,0,.13-.08,1,1,0,0,0,.14-1.44,3.6,3.6,0,0,1-2.27.81h-.1a3,3,0,0,1-2.76-3.24c0-.31.22-.6-.29-.75A2.87,2.87,0,0,1,464,36.69a3.07,3.07,0,0,1,2.26-3s0-.08,0-.08a11.22,11.22,0,0,0-2.72-1.26,1.93,1.93,0,0,1-1.3-1.45c-.23-.66.22-.94.81-1a5.3,5.3,0,0,1,4.16,1.38h0a3.32,3.32,0,0,1,3.14-1.08c1.88.47,2.63,2,2.1,4.34a3.29,3.29,0,0,1,2.9,1.27,3.08,3.08,0,0,1,.46,1,3,3,0,0,1-2.16,3.68c-.28.07-.9-.13-.73.47.16.45,0,1.17.81,1.27.59.07,1.16.17,1.74.26a21.29,21.29,0,0,1,4.35-9.86,19.18,19.18,0,0,1,12-6.78,37.57,37.57,0,0,1,13.29.37c.76.13.4.5.26.81A37.14,37.14,0,0,1,499,36.84a24,24,0,0,1-9.8,6.65,20.93,20.93,0,0,1-11.89.43l-1-.23c-.21.1-.32.19-.6.31s-.4.2-.17.54c1.29,1.89,1.12,3-.51,4.67.16.21.41.15.63.21a2.94,2.94,0,0,1,.8.24,3,3,0,0,1-2.51,5.45c-.24-.09-.45-.29-.74-.18v.83c.25.27.48.08.72,0A3,3,0,1,1,474,61.4l-.57-.14c.31,2.89.63,5.78,1.22,8.63.13.68.34.83,1,.63.95-.27,1.95-.43,2.93-.63,1.41-7.14,5.28-12.31,12.19-15,4.25-1.64,8.69-1.71,13.15-1.28,1.32.13,2.63.36,4,.54.48.07.68.23.43.77-2.78,5.9-6.43,11-12.12,14.53a20.34,20.34,0,0,1-15.9,2.44l-.67-.14-3.77,1.26a.8.8,0,0,0-.55.61c-.68,2.92-1.37,5.85-2,8.77,0,.11.07.23.07.35,2.09-.4,3.57.29,4.06,1.91.61,2-.65,3.59-3.08,4a5.75,5.75,0,0,1,.75,1.63,2.93,2.93,0,0,1-.09,1.38,3,3,0,0,1-3.74,2l-.65-.19q-3.35,14.1-6.64,28.19a1.18,1.18,0,0,1-1,1.07c-.8.14-1.55.39-2.36.58-1.07.28-1.07.26-.81-.75.79-3.2,1.61-6.4,2.43-9.61q2.61-10.11,5.24-20.22c.05-.19.13-.37.18-.55a4.32,4.32,0,0,1-2.43.38A3,3,0,1,1,468,87.7c.17.19.22.47.52.54l.82-3.36a5,5,0,0,1-2.12-.09,2.89,2.89,0,0,1-1.95-2.57,2.8,2.8,0,0,1,1.43-2.78,2.87,2.87,0,0,1,3.13,0,6.41,6.41,0,0,1,.81.55c.35-1.34.66-2.68,1-4,.13-.46,0-.61-.44-.67-.81-.1-1.63-.25-2.44-.39a19.45,19.45,0,0,1-22.75-1,39,39,0,0,1-8.43-9C437.38,64.54,437.3,64.29,437.85,64.09Zm-47.76,37a10.57,10.57,0,0,1,1.12-4.45,27.19,27.19,0,0,0,1.11-2.69,2.7,2.7,0,0,0-1.08-3.25c-.48-.36-1.14-.72-.56-1.46a1,1,0,0,1,1.43-.19l.29.18h0a4.52,4.52,0,0,1,1.79,5.15,36.45,36.45,0,0,1-1.63,3.74c-.7,1.59-1,3.16,0,4.73a.9.9,0,0,1-.28,1.24.89.89,0,0,1-1,0,.92.92,0,0,1-.26-.26,5.15,5.15,0,0,1-.37-.58l0,0-.06-.14a4.68,4.68,0,0,1-.54-2Zm-6.37-.44a7.85,7.85,0,0,1,.69-3.16c.4-.92.84-1.82,1.21-2.75.79-2,.53-2.86-1.09-4.24-.42-.35-.68-.74-.32-1.24l0,0a.89.89,0,0,1,.29-.26.91.91,0,0,1,1,0l0,0a3.5,3.5,0,0,1,.58.36,4.41,4.41,0,0,1,1.62,5.27c-.43,1.22-1,2.38-1.53,3.56-.66,1.55-1,3.09,0,4.65A.9.9,0,0,1,386,104h0s0,0,0,0a.89.89,0,0,1-1.23-.28,4.78,4.78,0,0,1-1-3.09Zm14.84,18.8a76.43,76.43,0,0,1-22,0l0,0h0c1.29-.72,2.71-.59,4.24-.87a8.83,8.83,0,0,1-3.5-4.69,23.18,23.18,0,0,1-.81-7v-.07a.2.2,0,0,1,0-.11.13.13,0,0,1,0-.06.14.14,0,0,0,0-.06.5.5,0,0,1,.38-.29H377v0a13,13,0,0,1,3.41,0h17.25c.73,0,1.11.14,1,1s.18,1.06,1,1.15a5.5,5.5,0,0,1,2.6,1,3,3,0,0,1,1.38,3.32,3.32,3.32,0,0,1-1.45,1.85,7.75,7.75,0,0,1-4,1.19,2,2,0,0,0-1.86,1,7.72,7.72,0,0,1-1.93,1.85c1.48.27,2.92.14,4.21.85h0ZM410,175.78a8.7,8.7,0,0,1-8,.15,4.54,4.54,0,0,1-2.63-3.53c-.11-.57,0-1,.7-.87a13.53,13.53,0,0,0,1.56,0,9.55,9.55,0,0,0,1.07,0l.13,0a1,1,0,0,1,1.18.84c.34,1.09,2.56,1.52,3.48.77a.85.85,0,0,0,.21-.25,1,1,0,0,0-.34-1.32,6.74,6.74,0,0,0-2.07-.82c-1-.33-2-.61-3-1a3.53,3.53,0,0,1-2.35-3.18,3.75,3.75,0,0,1,2-3.93,8,8,0,0,1,7.57-.15,4.07,4.07,0,0,1,2.16,3.17c.1.56-.09.72-.66.72s-1.44,0-2.14,0-1.34.13-1.63-.87c-.24-.78-2.07-.93-2.68-.35a.82.82,0,0,0-.29.42.8.8,0,0,0,.53,1c.65.27,1.36.42,2,.63.93.29,1.86.55,2.77.89a3.86,3.86,0,0,1,2.67,3.5A4,4,0,0,1,410,175.78Zm11.19.64c-.1,0-.29.05-.29,0-.56-1-1.11-.17-1.62,0a5.71,5.71,0,0,1-3.54.16,2.94,2.94,0,0,1-2.35-2.88,2.79,2.79,0,0,1,2.19-3,24.94,24.94,0,0,1,3.53-.66,3.61,3.61,0,0,0,1-.29.86.86,0,0,0,.22-.15.82.82,0,0,0,0-1.15,1.91,1.91,0,0,0-2.65.31c-.22.49-.51.49-.91.49a14,14,0,0,0-2.05,0c-.93.11-.93-.38-.76-1a2.42,2.42,0,0,1,1.49-1.79,9.74,9.74,0,0,1,6.95-.17,2.66,2.66,0,0,1,1.89,2.66V173a9.13,9.13,0,0,0,.42,3.48Zm-9.52-33.63c-3.4-.82-6.75-1.86-10.09-2.89a1,1,0,0,1-.81-1.09q-.51-8.22-1.07-16.34c-.05-.57.1-.72.65-.72,2,0,2-.07,2.68,1.78,1,2.54,2,5.06,3,7.6a6.73,6.73,0,0,0,2.9,3.43,32.48,32.48,0,0,0,13.94,4.87c5.21.46,10-.87,13.11-5.39s2.95-11.91-.3-15.74a18.87,18.87,0,0,0-9.17-5.69c-3.4-1.06-6.86-1.93-10.28-3a23.7,23.7,0,0,1-7.31-3.54c-5.39-4-7.47-9.42-6.91-15.92.87-10.17,9.05-17.55,18.87-18.58,6.49-.69,12.8.49,19,2.24,1,.29,2.34.38,3,1.06S443,77,443,78v5c0,2.44,0,4.88,0,7.34,0,.65-.09.9-.81.9-1.84,0-1.84,0-2.49-1.73-.78-2.06-1.67-4.09-2.29-6.2a7.58,7.58,0,0,0-4.13-4.65A25.4,25.4,0,0,0,424,76.1a14.71,14.71,0,0,0-8.6,1.48,10,10,0,0,0-5.59,8.67c-.27,4.77.82,9.07,4.88,12.19a20.79,20.79,0,0,0,6.67,3.08c4.12,1.27,8.34,2.21,12.34,3.87a27.53,27.53,0,0,1,6.88,3.8,15.82,15.82,0,0,1,6,13.34c-.21,10.48-6.5,17.8-16.73,20.52C423.8,144.67,417.72,144.24,411.66,142.79Zm32,33c0,.53-.2.63-.68.63h-2.64c-.58,0-.69-.22-.69-.74v-4.87c0-1.43-.43-2-1.32-2s-1.31.65-1.31,2v4.88c0,.54-.15.71-.71.71h-2.63c-.57,0-.71-.19-.71-.73V170a1.13,1.13,0,0,0-1.13-1.12,1.2,1.2,0,0,0-1.31.93,3.76,3.76,0,0,0-.12,1.15v4.77c0,.52-.09.74-.69.74-.91,0-1.82,0-2.73,0-.52,0-.65-.2-.65-.69v-9.06c0-.56.2-.71.73-.71.69,0,1.3,0,2.05,0s1.44,0,1.09,1.18c1.94-2.09,5.05-1.93,6.32.06a4.46,4.46,0,0,1,3.48-1.56h.08a3.54,3.54,0,0,1,3.57,3.52ZM452,169a2.26,2.26,0,0,0-2.17,2.35c0,1.43,0,2.86,0,4.29,0,.6-.19.76-.77.76h-2.73c-.42,0-.56-.13-.56-.55v-9.36c0-.51.23-.56.65-.56h1.85c1.35,0,1.35,0,1.46,1.4a3.38,3.38,0,0,1,3.25-1.69c.52.06.87.18.81.87,0,.89,0,1.79,0,2.73-.49-.08-.83-.16-1.22-.19A2.75,2.75,0,0,0,452,169Zm13.22,7.36h-3.3c-.52-1-1.06-.19-1.54,0a5.73,5.73,0,0,1-3.81.14,3,3,0,0,1-2.2-3,2.81,2.81,0,0,1,2.13-2.9,23.38,23.38,0,0,1,3.62-.7,3.39,3.39,0,0,0,1-.29.6.6,0,0,0,.21-.14.81.81,0,0,0,0-1.15,1.92,1.92,0,0,0-2.65.3.72.72,0,0,1-.81.49c-.78,0-1.62-.06-2.33,0s-.75-.31-.64-.81a2.55,2.55,0,0,1,1.62-2,9.92,9.92,0,0,1,6.67-.21,2.74,2.74,0,0,1,2.09,2.83v2.61a15,15,0,0,0,.27,4.33C465.7,176.28,465.6,176.4,465.2,176.4Zm6.48-12.26c-.05.78-.05,1.56-.13,2.3a3.85,3.85,0,0,1-3.5,3.35c-.45.05-.57-.07-.57-.49,0-.68-.18-1.42.82-1.63.3-.06.51-.38.66-.67.31-.56.5-1.07-.5-.9s-1.07-.35-1-1.11c.09-1-.35-2.39.21-2.88s1.89-.09,2.81-.18,1.33.18,1.17,1.14a6.37,6.37,0,0,0,0,1.07Zm9.41,12.28H481c-.69-1-1.28,0-1.88.12a6.08,6.08,0,0,1-3.25.08,3,3,0,0,1-2.44-3,2.8,2.8,0,0,1,2.3-3.06,26.66,26.66,0,0,1,3.44-.62,3.35,3.35,0,0,0,1-.31.68.68,0,0,0,.31-.22.77.77,0,0,0-.1-1.08,2,2,0,0,0-2.65.35.72.72,0,0,1-.73.47h-2.54c-.51,0-.59-.19-.51-.64a2.51,2.51,0,0,1,1.57-2.17,9.77,9.77,0,0,1,6.86-.21,2.74,2.74,0,0,1,2,2.82v3.81a9.6,9.6,0,0,0,.41,3.65Zm1.64-38c2.29.44,4.57,1,6.85,1.46.28.07.75,0,.75.45a4.36,4.36,0,0,1-.11,2c-.05.09-.42.09-.64.09h-18c-.63,0-.82-.16-.82-.77,0-1.58,0-1.58,1.56-2,.61-.19,1.23-.42,1.86-.55a5.38,5.38,0,0,0,4.07-3.75c2.36-6.23,4.77-12.45,7.16-18.69,4.12-10.78,8.19-21.58,12.38-32.33,1.31-3.36,3.3-6.4,4.93-9.61a18.17,18.17,0,0,0,.91-1.82c.31-.87.87-1,1.72-1a1,1,0,0,1,1.1.81q3.12,8.13,6.27,16.26,9,23.21,17.94,46.45a5.42,5.42,0,0,0,4.11,3.73c.86.18,1.78.58,2.52.72s.91.49.91,1.19c0,1.43,0,1.43-1.47,1.43H525.87c-3.77,0-7.54,0-11.24,0-.75,0-1-.15-1-1,.06-1.39,0-1.4,1.41-1.67,2.11-.37,4.2-.84,6.32-1.18.85-.14,1-.41.69-1.22-2.45-6.25-4.81-12.53-7.25-18.79-.77-2-.77-2-2.89-2H490.59a1.13,1.13,0,0,0-1.3.91q-3.56,9.89-7.16,19.75C481.92,138,481.92,138.3,482.73,138.45Zm23.25,38a8.83,8.83,0,0,0-1.26,0,3.43,3.43,0,0,0-.64,0c-1.21.24-1.86-.2-2-1.39-.08-.54-.41-.63-.89-.63a27.06,27.06,0,0,1-3.12,0c-.73,0-1.08.22-1.18.91-.15,1-.72,1.22-1.63,1.13a14.2,14.2,0,0,0-2.44,0c-.68,0-.82-.14-.56-.81,1.28-3.4,2.52-6.8,3.77-10.2.36-1,.74-1.94,1.08-2.91.12-.44.34-.67.81-.58h.1c1.2,0,2.63-.38,3.53.15s1,2.09,1.38,3.2c1.31,3.37,2.47,6.75,3.75,10.11C507,176.16,506.94,176.52,506,176.41Zm12.33-11.27v10.34c0,.7-.09,1-.9.94a17.53,17.53,0,0,0-2,0c-.58,0-1.29.15-.89-1-2.88,2.59-6.91,1-7.48-2.78a11.18,11.18,0,0,1-.07-2.71c.36-3.43,3.93-5.79,7.31-3.06v-4.13c0-.56.07-.87.73-.81,1.09.11,2.51-.45,3.17.24S518.31,164.11,518.31,165.14Zm12.21,6.8c-1-.07-1.95,0-2.93,0l0,0c-1.07,0-2.18,0-3.24,0-.74,0-.8.26-.63.87a2.1,2.1,0,0,0,3.32,1.14,2.44,2.44,0,0,1,2-.66c.32,0,.6,0,1,0s.88-.26,1.09.12-.21.84-.47,1.2c-1.42,1.92-3.47,2.32-5.65,2.09-3.23-.35-5.17-2.58-5-5.59a5.48,5.48,0,0,1,5.3-5.44c3.36-.19,5.62,1.56,6.15,4.76a1.61,1.61,0,0,0,.08.38C531.75,171.67,531.49,172,530.52,171.94ZM544,176c0,.35-.19.42-.49.42h-3c-.55,0-.55-.28-.55-.68v-5.17c0-1.19-.45-1.76-1.35-1.76h-.19a1.58,1.58,0,0,0-1.39,1.73c0,1.69,0,3.38,0,5.07,0,.65-.18.85-.81.81-.85,0-1.72,0-2.54,0-.48,0-.69-.11-.69-.64v-9.16c0-.53.21-.65.69-.65a19.28,19.28,0,0,0,2.15,0c.75-.07,1.21.08,1,1.28,1.53-1.47,3-1.92,4.69-1.39a3,3,0,0,1,2.34,2.44C544.28,170.85,544,173.43,544,176Z"/><path class="cls-12" d="M514.47,175.4h0l0,0Z"/><path class="cls-10" d="M471.68,164.14c-.05.81-.05,1.56-.15,2.32a3.86,3.86,0,0,1-3.5,3.36c-.46.05-.57-.08-.57-.5,0-.7-.16-1.44.81-1.62.31-.07.51-.39.67-.68.29-.55.4-1.05-.51-.9s-1.07-.35-1-1.11c.09-1-.42-2.31.22-2.87s1.85-.09,2.81-.19,1.33.18,1.17,1.15a6.25,6.25,0,0,0,0,1.06Z"/><path class="cls-13" d="M380.4,106.23c-.93,3.2-.15,6.24,1,9.28-2.28-1-5.15-4.54-4.43-9.28A13,13,0,0,1,380.4,106.23Z"/><path class="cls-11" d="M470.57,93.5a3.17,3.17,0,0,1-1.4-2.69A2.76,2.76,0,0,1,471.3,88c.69-.19.74-.49.56-1.07-.65-1.91-.38-2.73,1.29-4l.14-.18h0c2.12-.4,3.6.29,4.07,1.91.6,2-.63,3.6-3.09,4a5.32,5.32,0,0,1,.75,1.62,3,3,0,0,1-2.45,3.46,2.94,2.94,0,0,1-1.38-.09Zm4.06-2.71a2.6,2.6,0,0,0-2.54-2.54,2.58,2.58,0,1,0,2.54,2.62Zm2.44-5.19a2.55,2.55,0,0,0-2.53-2.6h0a2.58,2.58,0,1,0,2.56,2.63v0Z"/><path class="cls-7" d="M467.24,31.29a5.69,5.69,0,0,0-.42,1.62.61.61,0,0,1-.53.67h0a11.37,11.37,0,0,0-2.73-1.23,2,2,0,0,1-1.3-1.45c-.22-.66.23-.94.82-1A5.28,5.28,0,0,1,467.24,31.29Z"/><path class="cls-11" d="M468.61,88.23a3.77,3.77,0,0,1-1,4,4.24,4.24,0,0,1-2.43.37,3,3,0,0,1-.53-5.68,2.94,2.94,0,0,1,3.43.81C468.26,87.88,468.31,88.16,468.61,88.23Zm-.22,1.4a2.64,2.64,0,0,0-2.54-2.56,2.57,2.57,0,0,0-2.57,2.56v.05a2.51,2.51,0,0,0,2.49,2.53h.14A2.56,2.56,0,0,0,468.39,89.63Z"/><path class="cls-11" d="M470.72,51.68c0,.5.44.76.65,1.17.73,1.46.16,2.61-.74,3.73a3.61,3.61,0,0,1-2.77.48,3,3,0,1,1,2-5.68h0C470.12,51.52,470.35,51.86,470.72,51.68Zm.52,2.52A2.61,2.61,0,0,0,466,54a2.58,2.58,0,0,0,2.43,2.72,1.4,1.4,0,0,0,.29,0A2.57,2.57,0,0,0,471.24,54.2Z"/><path class="cls-11" d="M470.74,58.36c1.13,1.37,1.73,2.79.54,4.45a1.72,1.72,0,0,0-.18.54c-.34-.22-.53.11-.76.22a3,3,0,0,1-3.7-.7,3,3,0,0,1-.16-3.68,3,3,0,0,1,3.53-1C470.25,58.22,470.46,58.42,470.74,58.36Zm-1.84,5.12a2.72,2.72,0,1,0-.11,0h.11Z"/><path class="cls-11" d="M473.35,61.25c-1.82-1.77-1.91-2.93-.4-5a1.46,1.46,0,0,0,.16-.44c.26.22.48,0,.72,0a3,3,0,1,1,.09,5.63Zm4.06-2.72A2.48,2.48,0,0,0,475,56h-.17a2.55,2.55,0,1,0-.09,5.1h.24a2.5,2.5,0,0,0,2.5-2.51v-.07Z"/><path class="cls-11" d="M470.73,80a3.18,3.18,0,0,1-1.28,4.87,5.18,5.18,0,0,1-2.11-.08,2.91,2.91,0,0,1-1.95-2.57,2.82,2.82,0,0,1,1.42-2.79,2.92,2.92,0,0,1,3.14,0A7.06,7.06,0,0,1,470.73,80Zm-2.39,4.53a2.55,2.55,0,1,0,.34-5.09,1.31,1.31,0,0,0-.28,0,2.55,2.55,0,0,0-.34,5.09A1.31,1.31,0,0,0,468.34,84.52Z"/><path class="cls-12" d="M491.12,112.8c3.49-9.36,6.93-18.61,10.46-28.14l.64,1.71L512,111.76c.4,1,.4,1-.66,1Z"/><path class="cls-14" d="M395.58,112.75a18.83,18.83,0,0,0,.7-3.65c0-.25.07-.42.39-.43a2.24,2.24,0,0,1,1.9,1.42,1.88,1.88,0,0,1-.9,2.24A5.34,5.34,0,0,1,395.58,112.75Z"/><path class="cls-12" d="M473.29,82.74l-.14.17C473.16,82.83,473.11,82.68,473.29,82.74Z"/><path class="cls-14" d="M498,171.31l1.53-4.87c.46,1.62.86,3,1.25,4.33.12.38.05.61-.43.58C499.58,171.31,498.84,171.31,498,171.31Z"/><path class="cls-12" d="M510.91,171.39c0-1.84.55-2.64,1.71-2.67a1.45,1.45,0,0,1,1.52,1,3.67,3.67,0,0,1,.1,2.57,1.52,1.52,0,0,1-1.62,1.25,1.56,1.56,0,0,1-1.63-1.28A4.78,4.78,0,0,1,510.91,171.39Z"/><path class="cls-14" d="M461.53,171.6c.13,1.92-.31,2.73-1.62,2.93a1.15,1.15,0,0,1-1.43-.77.8.8,0,0,1,0-.15,1,1,0,0,1,.59-1.31l.22-.05Z"/><path class="cls-14" d="M420.56,171.59c.13,1.92-.34,2.75-1.68,2.95a1.19,1.19,0,0,1-1.46-.83s0-.07,0-.1a1,1,0,0,1,.63-1.32l.23,0Z"/><path class="cls-14" d="M480.61,171.6c.15,1.87-.34,2.72-1.67,2.94a1.18,1.18,0,0,1-1.46-.8l0-.11a1,1,0,0,1,.61-1.33l.21-.05Z"/><path class="cls-14" d="M525.71,170.08h-1.07c-1,0-1.09-.21-.65-1.06a2,2,0,0,1,3.66.25c.22.55.11.87-.58.82C526.62,170.05,526.16,170.08,525.71,170.08Z"/><path class="cls-15" d="M475.87,46.57a2.55,2.55,0,1,1-2.58-2.6,2.56,2.56,0,0,1,2.58,2.6Z"/><path class="cls-15" d="M467,34.11a2.57,2.57,0,0,1,0,5.13,2.57,2.57,0,1,1,0-5.13Z"/><path class="cls-15" d="M474.93,49.75a2.49,2.49,0,0,1,2.51,2.46v.07a2.54,2.54,0,0,1-2.5,2.57h-.09a2.58,2.58,0,0,1-2.53-2.54,2.54,2.54,0,0,1,2.54-2.56Z"/><path class="cls-15" d="M473,40.09a2.53,2.53,0,0,1-2.61-2.45.28.28,0,0,1,0-.09A2.7,2.7,0,0,1,472.92,35a2.54,2.54,0,0,1,2.59,2.51v0A2.52,2.52,0,0,1,473,40.09Z"/><path class="cls-15" d="M472.3,33.44a2.43,2.43,0,0,1-1.25,1.87c-.62.37-1.2.58-1.62-.33a2.23,2.23,0,0,0-1.63-1.18c-.55-.12-.63-.44-.59-.91a2.61,2.61,0,0,1,2.62-2.37,2.7,2.7,0,0,1,2.47,2.91Z"/><path class="cls-15" d="M469.47,43.15a2.58,2.58,0,0,1-2.54-2.44c0-.56,0-1.06.81-1.17a2.6,2.6,0,0,0,1.63-1.13c.35-.48.59-.42.77.13a2.77,2.77,0,0,0,1.5,1.69.61.61,0,0,1,.39.82A2.6,2.6,0,0,1,469.47,43.15Z"/><path class="cls-15" d="M474.65,90.79a2.55,2.55,0,1,1-2.56-2.54h0A2.58,2.58,0,0,1,474.65,90.79Z"/><path class="cls-15" d="M477.06,85.6a2.57,2.57,0,0,1-2.57,2.56h0a2.58,2.58,0,0,1,0-5.16,2.55,2.55,0,0,1,2.57,2.56Z"/><path class="cls-15" d="M468.39,89.63a2.56,2.56,0,0,1-2.48,2.58,2.52,2.52,0,0,1-2.63-2.39v-.14a2.55,2.55,0,0,1,2.51-2.6h.06A2.64,2.64,0,0,1,468.39,89.63Z"/><path class="cls-15" d="M471.24,54.2a2.63,2.63,0,1,1-2.82-2.63h.29A2.6,2.6,0,0,1,471.24,54.2Z"/><path class="cls-15" d="M468.9,63.47a2.55,2.55,0,0,1-.23-5.1H469a2.55,2.55,0,1,1,.23,5.1Z"/><path class="cls-15" d="M477.44,58.53A2.5,2.5,0,0,1,475,61.11h0a2.55,2.55,0,0,1-.4-5.09,2.08,2.08,0,0,1,.25,0,2.48,2.48,0,0,1,2.59,2.37Z"/><path class="cls-15" d="M468.34,84.52a2.55,2.55,0,1,1-.22-5.1h.28a2.55,2.55,0,0,1,.23,5.1Z"/></g></g></g></svg>